<?xml version="1.0" encoding="UTF-8"?>
<svg id="Layer_1" data-name="Layer 1" xmlns="http://www.w3.org/2000/svg" viewBox="0 0 384.43 386.77">
  <defs>
    <style>
      .cls-1 {
        fill: #262626;
      }
    </style>
  </defs>
  <path class="cls-1" d="M189.25,168.5c24.14-2.69,53.69-32.3,50.52-60.95-1.41-12.77,1.02-25.06,6.32-36.75,5.03-11.09,10.3-13,21.15-7.75,2.12,1.03,4.28,2.03,6.23,3.34,3.37,2.26,5.45,1.47,7.54-1.94,2.58-4.2,5.75-8.02,9.54-13.19,6.21,11.53,12.1,22.12,17.6,32.91,1.82,3.57,3.87,5.34,8.02,6.24,33.84,7.29,53.89,30.27,67.66,60.26,1.48,3.21-.05,5.61-1.46,8.06-8.62,14.98-19.49,27.75-34.39,37.05-16.15,10.07-20.17,24.17-11.27,41.11,5.81,11.05,9.48,21.91,7.01,34.55-1.85,9.49-5.02,12.92-14.6,12.48-3.38-.16-5.14,.06-6.05,3.89-10.35,43.81-38.89,71.8-79.58,87.44-49.59,19.06-97.76,14.56-142.87-14.17-43.98-28.02-64.7-80.09-51.4-128.14,5.84-21.1,17.54-38.43,34.92-51.88,7.25-5.61,14.82-10.92,21.43-17.22,13.75-13.11,20.51-28.96,15.99-48.26-3.85-16.42-18.96-28.38-33.92-27.06-10.67,.94-18.74,9.84-18.1,19.97,.73,11.48,12.8,18.65,22.88,12.59,6.14-3.7,7.08-.8,8.06,3.72,2.25,10.32-1.82,18.42-9.33,25.17-17.45,15.68-46.08,15.41-65.87-.59C-.83,128.27-7.68,88.15,9.26,55.48,44.2-11.94,140.91-19.49,188.38,41.5c28.8,37.01,29.76,85.9,2.43,124.28-.45,.63-.77,1.33-1.56,2.72Zm134.93,92.49c-2.97-6.11-4.74-10.35-7-14.32-13.27-23.3-4.88-56.73,18.97-69.01,8.91-4.59,16.12-11.58,22.23-19.65,2.52-3.33,3.02-6.06,.75-9.87-11.36-19.14-26.53-33.94-49.26-36.58-13.57-1.58-23.81-6.09-32.24-16.68-3.37-4.24-9.21-10.42-13.9-8.09-4.4,2.19-3.28,10.47-2.85,16.11,2.74,35.83-14.46,60.38-43.75,78.18-10.84,6.59-23.3,9.29-34.88,14.08-55.02,22.78-73.93,89.32-38.6,135.95,19.81,26.16,54.99,37.29,84.17,26.64,29.35-10.71,38.71-44.24,18.38-65.98-8.48-9.07-19.07-12.07-31.3-11.53-7.82,.35-11.97-3.9-12.03-10.43-.06-6.36,4.39-10.74,11.74-11.08,7.87-.36,15.69,.05,23.29,2.62,26.73,9.02,41.85,33.47,40.21,66.15,13.18-13.23,21.32-28.27,24.53-46.03,.91-5.02-1.95-5.2-5.74-5.84-26.76-4.48-45.35-29.64-42.09-56.55,.32-2.67,.7-5.08,3.93-6.04,10.97-3.26,16.7,.53,17.19,11.57,.63,14.31,8.65,25.38,21.65,28.44,8.29,1.95,16.76,3.07,26.61,7.92Z"/>
  <path class="cls-1" d="M337.91,141.28c-.14,6.91-6.26,12.39-13.65,12.22-6.91-.16-12.11-5.66-12.08-12.79,.03-6.97,6.22-13,13.12-12.77,7.14,.23,12.75,6.17,12.61,13.34Z"/>
</svg>